<svg xmlns="http://www.w3.org/2000/svg" width="15" height="25" viewBox="0 0 15 25">
    <g fill="#FFF" fill-rule="evenodd">
        <path d="M7.385 2.464a4.928 4.928 0 0 1 4.923 4.923c0 3.086-3 7.747-4.924 10.317-1.924-2.568-4.922-7.227-4.922-10.317a4.928 4.928 0 0 1 4.923-4.923m0 19.153c2.958-3.548 7.385-9.63 7.385-14.23 0-4.072-3.312-7.384-7.385-7.384C3.313.003.001 3.315.001 7.387c0 4.6 4.43 10.683 7.384 14.23"/>
        <path d="M9.847 7.387a2.465 2.465 0 0 0-2.462-2.461 2.465 2.465 0 0 0-2.461 2.461A2.465 2.465 0 0 0 7.385 9.85a2.465 2.465 0 0 0 2.462-2.462M2.463 24.618h9.846v-2.462H2.463z"/>
    </g>
</svg>
