<svg xmlns="http://www.w3.org/2000/svg" width="20" height="25" viewBox="0 0 20 25">
    <g fill="#FFF" fill-rule="evenodd">
        <path stroke="#FFF" stroke-width=".5" d="M18.942 8.647c.172.058.258.2.258.401V23.48c0 .143-.057.286-.172.343a.326.326 0 0 1-.23.086c-.057 0-.114 0-.171-.028l-5.903-2.348-5.875 2.348a.587.587 0 0 1-.315 0L.516 21.475a.449.449 0 0 1-.258-.4V6.642c0-.143.086-.258.2-.344a.403.403 0 0 1 .402-.057l5.846 2.32 1.862-.745c.058.086.086.172.144.258.028.086.086.172.143.257.029.086.086.172.143.258l-2.178.86v13.514l5.76-2.29v-8.19c.058.029.086.029.144.029.057 0 .086-.029.143-.029l.029 8.19 5.444 2.176V9.335l-1.862-.745c.172-.229.315-.487.458-.744l2.006.801zM1.146 20.788l5.474 2.176V9.45H6.59L1.146 7.273v13.515z"/>
        <path d="M8.626 5.784a8.37 8.37 0 0 0 .773 1.747c.058.086.086.171.144.257.057.086.114.172.143.258.057.086.115.172.143.258 1.118 1.718 2.522 3.178 2.608 3.264a.6.6 0 0 0 .172.115c.057.028.086.028.143.028.058 0 .086 0 .144-.028.057-.029.114-.058.171-.115.086-.086 1.49-1.546 2.608-3.264.172-.258.315-.487.459-.745a8.176 8.176 0 0 0 .773-1.718c.058-.143.086-.315.115-.458.057-.286.086-.573.086-.83 0-2.377-1.949-4.324-4.327-4.324-2.379 0-4.327 1.947-4.327 4.324 0 .286.028.572.086.83 0 .086.028.258.086.401zm7.594-1.317c0 .229-.029.458-.058.687-.028.143-.057.258-.086.372-.143.516-.43 1.088-.745 1.661-.143.258-.315.487-.458.745a23.183 23.183 0 0 1-1.949 2.49c-.057.058-.086.115-.143.173-.057-.058-.086-.115-.143-.172a23.183 23.183 0 0 1-1.949-2.491l-.172-.258c-.057-.086-.115-.172-.143-.258-.058-.086-.086-.172-.144-.258a8.5 8.5 0 0 1-.773-1.66c-.029-.115-.058-.258-.086-.373-.058-.229-.058-.458-.058-.687A3.46 3.46 0 0 1 12.781.974c1.92 0 3.439 1.574 3.439 3.493z"/>
        <path d="M12.408 6.3c.115.028.23.028.344.028.115 0 .23 0 .344-.029a1.874 1.874 0 0 0 1.519-1.832c0-1.03-.831-1.861-1.863-1.861a1.877 1.877 0 0 0-1.862 1.86c0 .917.659 1.69 1.518 1.833zm1.92-1.833a1.59 1.59 0 0 1-1.576 1.575 1.57 1.57 0 0 1-1.576-1.575 1.57 1.57 0 0 1 1.576-1.575c.86 0 1.576.716 1.576 1.575z"/>
    </g>
</svg>
