<svg xmlns="http://www.w3.org/2000/svg" width="44" height="44" viewBox="0 0 44 44">
    <g fill="#FFF" fill-rule="nonzero">
        <path d="M39.669 20.86H10.522a.751.751 0 0 1-.545-.237.746.746 0 0 1-.197-.558c.571-7.996 7.298-14.26 15.314-14.26 8.013 0 14.74 6.262 15.314 14.258a.741.741 0 0 1-.74.796zm-28.327-1.485H38.85c-.89-6.84-6.782-12.087-13.755-12.087-6.973 0-12.868 5.247-13.752 12.087zM11.21 40.08H7.72a.743.743 0 0 1-.742-.743V27.091c0-.41.334-.742.742-.742h3.49a.74.74 0 0 1 .741.742v12.246c0 .41-.33.742-.742.742zm-2.748-1.484h2.005V27.833H8.462v10.763z"/>
        <path d="M7.72 43.496H1.028a.742.742 0 0 1-.741-.742V27.091c0-.41.333-.742.741-.742H7.72a.74.74 0 0 1 .741.742v15.663a.74.74 0 0 1-.741.742zm-5.95-1.484h5.208V27.833H1.77v14.179zM25.091 32.105h-.014a.744.744 0 0 1-.727-.757c.029-1.49-.142-1.5-1.8-1.6-1.102-.066-2.608-.156-4.428-.9-3.838-1.573-6.356.943-6.383.97a.741.741 0 1 1-1.06-1.038c.13-.134 3.252-3.252 8.004-1.306 1.592.652 2.902.73 3.957.792 1.672.101 3.251.194 3.193 3.112a.744.744 0 0 1-.742.727z"/>
        <path d="M16.863 38.863a29.2 29.2 0 0 1-5.802-.578.745.745 0 0 1-.58-.875.744.744 0 0 1 .876-.58c8.775 1.784 15.992-1.413 16.064-1.445 4.143-2.465 7.845-5.507 7.697-6.343-.536-.666-4.024.92-7.308 3.346a.741.741 0 0 1-.44.145h-9.217a.741.741 0 1 1 0-1.484h8.973c1.945-1.414 7.419-5.083 9.152-2.925.278.342.38.77.295 1.236-.44 2.462-7.132 6.547-8.468 7.34-.299.138-4.869 2.162-11.242 2.163zM40.118 23.626H10.07a.742.742 0 0 1-.687-.463l-1.119-2.768a.744.744 0 0 1 .687-1.02h32.282a.744.744 0 0 1 .69 1.02l-1.118 2.768a.745.745 0 0 1-.687.463zM10.57 22.143h29.045l.52-1.284H10.053l.518 1.284z"/>
        <path d="M43.225 23.626H7.048a.74.74 0 0 1-.742-.742c0-.41.33-.741.742-.741h36.177a.74.74 0 1 1 0 1.483zM25.094 7.288a.743.743 0 0 1-.742-.742V3.96a.743.743 0 0 1 1.484 0v2.586a.74.74 0 0 1-.742.742z"/>
        <path d="M25.094 4.996a2.25 2.25 0 0 1-2.246-2.246 2.247 2.247 0 1 1 2.246 2.246zm0-3.008a.763.763 0 0 0 0 1.524.763.763 0 0 0 0-1.524zM4.373 33.167a1.86 1.86 0 0 1-1.858-1.856 1.857 1.857 0 0 1 3.713 0 1.859 1.859 0 0 1-1.855 1.856zm0-2.227a.374.374 0 0 0-.374.37c0 .41.744.412.744 0a.373.373 0 0 0-.37-.37z"/>
    </g>
</svg>
