<svg xmlns="http://www.w3.org/2000/svg" width="21" height="21" viewBox="0 0 21 21">
    <path fill="#FFF" fill-rule="evenodd" d="M7.018 13.98c4.32 4.321 9.164 5.496 9.99 5.098l2.114-2.43c0-.003 0-.006-.002-.008l-3.044-2.411-.819 1.23a1.558 1.558 0 0 1-1.201.639c-.453.025-1.828.096-5.54-3.616-.918-.918-3.711-3.712-3.615-5.54a1.56 1.56 0 0 1 .638-1.202l1.231-.82L4.36 1.878l-.008-.003-2.43 2.115c-.397.827.777 5.67 5.097 9.992M.587 2.68a.928.928 0 0 1 .047-.044L3.14.452c.345-.328.832-.49 1.342-.445.455.04.895.242 1.208.555a.963.963 0 0 1 .071.08l2.463 3.11a1.768 1.768 0 0 1-.044 2.45.945.945 0 0 1-.143.117l-1.26.839c.1.436.758 1.703 3.058 4.004 2.3 2.3 3.567 2.958 4.004 3.058l.837-1.26a.922.922 0 0 1 .118-.143 1.767 1.767 0 0 1 2.45-.044l3.11 2.463a.953.953 0 0 1 .08.072c.71.712.756 1.87.108 2.55l-2.183 2.508a.843.843 0 0 1-.043.048c-.432.43-1.078.586-1.787.586-1.28 0-2.759-.507-3.528-.81-1.486-.584-4.412-1.997-7.304-4.89-2.143-2.143-3.88-4.738-4.889-7.305C.34 6.8-.624 3.89.587 2.68"/>
</svg>
