<svg xmlns="http://www.w3.org/2000/svg" width="26" height="17" viewBox="0 0 26 17">
    <path fill="#FFF" fill-rule="evenodd" d="M13.494 14.696c.645-.566 1.491-.85 2.392-1.178l1.445.496a.849.849 0 0 0 .565-.007l1.444-.485c.902.327 1.748.608 2.393 1.174h-8.24zM2.26 2.26h21.478v11.792c-1.203-1.194-3.31-1.99-4.128-2.267a.845.845 0 0 0-.555.004l-1.443.51-1.443-.51c-.179-.063-.374-.035-.554.026-.945.32-3.61 1.184-4.614 2.88H2.261V2.26zM26 1.863A1.863 1.863 0 0 0 24.137 0H1.863A1.863 1.863 0 0 0 0 1.863v13.23c0 1.03.834 1.864 1.863 1.864h22.274A1.863 1.863 0 0 0 26 15.094V1.863zM8.97 11.587c0 .468-.38.848-.848.848H5.277a.848.848 0 0 1 0-1.696h2.845c.468 0 .848.38.848.848zm1.236-2.26H5.277a.848.848 0 0 1 0-1.697h4.929a.848.848 0 0 1 0 1.696zM4.429 5.37c0-.469.38-.848.848-.848h4.929a.848.848 0 0 1 0 1.695H5.277a.848.848 0 0 1-.848-.847zm13.184-.415a2.267 2.267 0 0 1 2.27 2.26 2.267 2.267 0 0 1-2.27 2.26 2.267 2.267 0 0 1-2.268-2.26 2.267 2.267 0 0 1 2.268-2.26zm0 6.215a3.965 3.965 0 0 0 3.965-3.955 3.964 3.964 0 0 0-7.93 0 3.965 3.965 0 0 0 3.965 3.955z"/>
</svg>
